<svg width="457" height="32" viewBox="0 0 457 32" fill="none" xmlns="http://www.w3.org/2000/svg">
<path d="M0.528409 31H6.67898V18.983H18.5114V13.9119H6.67898V6.98011H19.7898V1.90909H0.528409V31ZM32.1548 31.4261C37.5526 31.4261 41.1889 28.7983 42.0412 24.75L36.4446 24.3807C35.8338 26.0426 34.2713 26.9091 32.2543 26.9091C29.2287 26.9091 27.3111 24.9062 27.3111 21.6534V21.6392H42.169V19.9773C42.169 12.5625 37.6804 8.89773 31.9134 8.89773C25.4929 8.89773 21.331 13.4574 21.331 20.1903C21.331 27.108 25.4361 31.4261 32.1548 31.4261ZM27.3111 17.8892C27.4389 15.4034 29.3281 13.4148 32.0128 13.4148C34.6406 13.4148 36.4588 15.2898 36.473 17.8892H27.3111ZM52.169 1.90909H46.1179V31H52.169V1.90909ZM57.0163 31H63.0675V9.18182H57.0163V31ZM60.0561 6.36932C61.8601 6.36932 63.3374 4.99148 63.3374 3.30114C63.3374 1.625 61.8601 0.247158 60.0561 0.247158C58.2663 0.247158 56.7891 1.625 56.7891 3.30114C56.7891 4.99148 58.2663 6.36932 60.0561 6.36932ZM72.9716 9.18182H66.7216L72.9716 20.0909L66.4943 31H72.7443L76.9773 23.4574L81.2812 31H87.4602L80.9688 20.0909L87.2898 9.18182H81.0824L76.9773 16.8097L72.9716 9.18182ZM100.255 31H106.406V18.983H118.891V31H125.028V1.90909H118.891V13.9119H106.406V1.90909H100.255V31ZM139.928 31.4261C145.326 31.4261 148.962 28.7983 149.815 24.75L144.218 24.3807C143.607 26.0426 142.045 26.9091 140.028 26.9091C137.002 26.9091 135.085 24.9062 135.085 21.6534V21.6392H149.942V19.9773C149.942 12.5625 145.454 8.89773 139.687 8.89773C133.266 8.89773 129.104 13.4574 129.104 20.1903C129.104 27.108 133.21 31.4261 139.928 31.4261ZM135.085 17.8892C135.212 15.4034 137.102 13.4148 139.786 13.4148C142.414 13.4148 144.232 15.2898 144.246 17.8892H135.085ZM159.942 1.90909H153.891V31H159.942V1.90909ZM170.841 1.90909H164.79V31H170.841V1.90909ZM193.842 15.4034C193.302 11.3835 190.063 8.89773 184.552 8.89773C178.969 8.89773 175.29 11.483 175.305 15.6875C175.29 18.9545 177.35 21.071 181.612 21.9233L185.39 22.6761C187.293 23.0597 188.16 23.7557 188.188 24.8494C188.16 26.142 186.754 27.0653 184.637 27.0653C182.478 27.0653 181.043 26.142 180.674 24.3665L174.722 24.679C175.29 28.8551 178.842 31.4261 184.623 31.4261C190.276 31.4261 194.325 28.5426 194.339 24.2386C194.325 21.0852 192.265 19.196 188.032 18.3295L184.083 17.5341C182.052 17.0938 181.299 16.3977 181.313 15.3466C181.299 14.0398 182.776 13.1875 184.651 13.1875C186.754 13.1875 188.004 14.3381 188.302 15.7443L193.842 15.4034ZM209.754 9.18182H205.649V3.95455H199.598V9.18182H196.615V13.7273H199.598V25.0909C199.57 29.3665 202.482 31.483 206.871 31.2983C208.433 31.2415 209.541 30.929 210.152 30.7301L209.2 26.2273C208.902 26.2841 208.263 26.4261 207.695 26.4261C206.487 26.4261 205.649 25.9716 205.649 24.2955V13.7273H209.754V9.18182ZM213.696 31H219.747V18.6562C219.747 15.9716 221.707 14.125 224.378 14.125C225.216 14.125 226.366 14.267 226.935 14.4517V9.08239C226.395 8.95455 225.642 8.86932 225.031 8.86932C222.588 8.86932 220.585 10.2898 219.79 12.9886H219.562V9.18182H213.696V31ZM238.906 31.4261C245.525 31.4261 249.644 26.8949 249.644 20.1761C249.644 13.4148 245.525 8.89773 238.906 8.89773C232.286 8.89773 228.167 13.4148 228.167 20.1761C228.167 26.8949 232.286 31.4261 238.906 31.4261ZM238.934 26.7386C235.88 26.7386 234.317 23.9403 234.317 20.1335C234.317 16.3267 235.88 13.5142 238.934 13.5142C241.931 13.5142 243.494 16.3267 243.494 20.1335C243.494 23.9403 241.931 26.7386 238.934 26.7386ZM234.573 6.19886C236.221 6.19886 237.528 4.87784 237.528 3.30114C237.528 1.69602 236.221 0.417613 234.573 0.417613C232.94 0.417613 231.59 1.69602 231.59 3.30114C231.59 4.87784 232.94 6.19886 234.573 6.19886ZM243.266 6.19886C244.914 6.19886 246.221 4.87784 246.221 3.30114C246.221 1.69602 244.914 0.417613 243.266 0.417613C241.633 0.417613 240.283 1.69602 240.283 3.30114C240.283 4.87784 241.633 6.19886 243.266 6.19886ZM253.579 31H259.63V17.9034C259.63 15.4886 261.164 13.8835 263.181 13.8835C265.17 13.8835 266.505 15.2472 266.505 17.392V31H272.371V17.6761C272.371 15.4176 273.664 13.8835 275.866 13.8835C277.798 13.8835 279.246 15.0909 279.246 17.5199V31H285.283V16.3267C285.283 11.5966 282.471 8.89773 278.408 8.89773C275.212 8.89773 272.727 10.5312 271.832 13.0312H271.604C270.908 10.5028 268.678 8.89773 265.681 8.89773C262.741 8.89773 260.511 10.4602 259.602 13.0312H259.346V9.18182H253.579V31ZM302.421 31H305.944V20.375H312.308C319.083 20.375 322.137 16.2557 322.137 11.1136C322.137 5.97159 319.083 1.90909 312.251 1.90909H302.421V31ZM305.944 17.25V5.03409H312.137C316.867 5.03409 318.671 7.61932 318.671 11.1136C318.671 14.608 316.867 17.25 312.194 17.25H305.944ZM335.987 31.4545C341.896 31.4545 345.873 26.9659 345.873 20.2045C345.873 13.3864 341.896 8.89773 335.987 8.89773C330.077 8.89773 326.1 13.3864 326.1 20.2045C326.1 26.9659 330.077 31.4545 335.987 31.4545ZM335.987 28.4432C331.498 28.4432 329.452 24.5795 329.452 20.2045C329.452 15.8295 331.498 11.9091 335.987 11.9091C340.475 11.9091 342.521 15.8295 342.521 20.2045C342.521 24.5795 340.475 28.4432 335.987 28.4432ZM350.99 31H354.342V17.1932C354.342 14.2386 356.672 12.0795 359.854 12.0795C360.749 12.0795 361.672 12.25 361.899 12.3068V8.89773C361.516 8.86932 360.635 8.84091 360.138 8.84091C357.524 8.84091 355.251 10.3182 354.456 12.4773H354.229V9.18182H350.99V31ZM376.729 9.18182H372.07V3.95455H368.717V9.18182H365.422V12.0227H368.717V25.6591C368.717 29.4659 371.786 31.2841 374.626 31.2841C375.876 31.2841 376.672 31.0568 377.126 30.8864L376.445 27.875C376.161 27.9318 375.706 28.0455 374.967 28.0455C373.49 28.0455 372.07 27.5909 372.07 24.75V12.0227H376.729V9.18182ZM391.487 9.18182H386.601V6.96591C386.601 4.80682 387.51 3.67045 389.726 3.67045C390.692 3.67045 391.26 3.89773 391.601 4.01136L392.567 1.11364C392.055 0.886363 391.033 0.545453 389.385 0.545453C386.26 0.545453 383.249 2.42045 383.249 6.17045V9.18182H379.726V12.0227H383.249V31H386.601V12.0227H391.487V9.18182ZM404.151 31.4545C410.06 31.4545 414.037 26.9659 414.037 20.2045C414.037 13.3864 410.06 8.89773 404.151 8.89773C398.241 8.89773 394.264 13.3864 394.264 20.2045C394.264 26.9659 398.241 31.4545 404.151 31.4545ZM404.151 28.4432C399.662 28.4432 397.616 24.5795 397.616 20.2045C397.616 15.8295 399.662 11.9091 404.151 11.9091C408.639 11.9091 410.685 15.8295 410.685 20.2045C410.685 24.5795 408.639 28.4432 404.151 28.4432ZM422.506 1.90909H419.154V31H422.506V1.90909ZM428.646 31H431.999V9.18182H428.646V31ZM430.351 5.54545C431.658 5.54545 432.737 4.52273 432.737 3.27273C432.737 2.02273 431.658 1 430.351 1C429.044 1 427.964 2.02273 427.964 3.27273C427.964 4.52273 429.044 5.54545 430.351 5.54545ZM447.002 31.4545C452.911 31.4545 456.888 26.9659 456.888 20.2045C456.888 13.3864 452.911 8.89773 447.002 8.89773C441.093 8.89773 437.116 13.3864 437.116 20.2045C437.116 26.9659 441.093 31.4545 447.002 31.4545ZM447.002 28.4432C442.513 28.4432 440.468 24.5795 440.468 20.2045C440.468 15.8295 442.513 11.9091 447.002 11.9091C451.491 11.9091 453.536 15.8295 453.536 20.2045C453.536 24.5795 451.491 28.4432 447.002 28.4432Z" fill="white"/>
</svg>
